<svg width="12" height="12" viewBox="0 0 12 12" fill="none" xmlns="http://www.w3.org/2000/svg">
<g clip-path="url(#clip0)">
<path d="M6.00001 0C2.69165 0 0 2.69165 0 6.00001C0 9.30838 2.69165 12 6.00001 12C9.30838 12 12 9.30838 12 6.00001C12 2.69165 9.30835 0 6.00001 0ZM6.39029 9.55996C6.10524 9.60748 5.53804 9.72617 5.25 9.75002C5.0062 9.77021 4.77612 9.63065 4.63588 9.43031C4.49526 9.23 4.46156 8.97365 4.54505 8.74367L5.6792 5.62502H4.5C4.49899 4.97518 4.98642 4.49736 5.60984 4.31399C5.90735 4.22646 6.46164 4.10667 6.75 4.12503C6.92275 4.13602 7.22387 4.2444 7.36412 4.44474C7.50474 4.64505 7.53844 4.9014 7.45495 5.13139L6.3208 8.25003H7.49964C7.49987 8.89912 7.03061 9.45325 6.39029 9.55996ZM6.75 3.75001C6.33577 3.75001 5.99999 3.41419 5.99999 3.00001C5.99999 2.58578 6.33577 2.25 6.75 2.25C7.16422 2.25 7.5 2.58578 7.5 3.00001C7.5 3.41421 7.16424 3.75001 6.75 3.75001Z" fill="#FE2626"/>
</g>
<defs>
<clipPath id="clip0">
<rect width="12" height="12" fill="white"/>
</clipPath>
</defs>
</svg>
