<svg width="12" height="12" viewBox="0 0 12 12" fill="none" xmlns="http://www.w3.org/2000/svg">
<g clip-path="url(#clip0)">
<path d="M10.3636 3.81825H8.72727V1.63644H1.09092C0.488174 1.63644 0 2.12461 0 2.72735V8.72737H1.09092C1.09092 9.6301 1.82455 10.3637 2.72728 10.3637C3.63002 10.3637 4.36365 9.6301 4.36365 8.72737H7.63638C7.63638 9.6301 8.37001 10.3637 9.27274 10.3637C10.1755 10.3637 10.9091 9.6301 10.9091 8.72737H12V6.00008L10.3636 3.81825ZM2.72728 9.54552C2.27455 9.54552 1.9091 9.18008 1.9091 8.72734C1.9091 8.27461 2.27455 7.90916 2.72728 7.90916C3.18002 7.90916 3.54547 8.27461 3.54547 8.72734C3.54547 9.18008 3.17999 9.54552 2.72728 9.54552ZM9.27274 9.54552C8.82001 9.54552 8.45456 9.18008 8.45456 8.72734C8.45456 8.27461 8.82001 7.90916 9.27274 7.90916C9.72548 7.90916 10.0909 8.27461 10.0909 8.72734C10.0909 9.18008 9.72545 9.54552 9.27274 9.54552ZM8.72727 6.00008V4.63646H10.0909L11.1627 6.00008H8.72727Z" fill="#FE2626"/>
</g>
<defs>
<clipPath id="clip0">
<rect width="12" height="12" fill="white"/>
</clipPath>
</defs>
</svg>
