<svg width="12" height="12" viewBox="0 0 12 12" fill="none" xmlns="http://www.w3.org/2000/svg">
<g clip-path="url(#clip0)">
<path d="M5.99985 3.00006C6.82826 3.00006 7.49983 2.3285 7.49983 1.50009C7.49983 0.671677 6.82826 0.000116348 5.99985 0.000116348C5.17144 0.000116348 4.49988 0.671677 4.49988 1.50009C4.49988 2.3285 5.17144 3.00006 5.99985 3.00006Z" fill="#FE2626"/>
<path d="M8.24683 7.07704L7.90633 4.42509C7.86808 4.04034 7.54709 3.7501 7.16084 3.7501H6.74985C6.6501 3.7501 6.55486 3.78985 6.48436 3.8596L5.99987 4.34409L5.51537 3.8596C5.44487 3.78985 5.34963 3.7501 5.24988 3.7501H4.83964C4.45264 3.7501 4.13165 4.04034 4.09415 4.41534L3.7529 7.07779C3.7394 7.18429 3.7724 7.29229 3.84365 7.37254C3.9149 7.45353 4.0169 7.50003 4.1249 7.50003H4.52989L4.84339 11.325C4.88088 11.709 5.20263 12 5.58962 12H6.41086C6.79785 12 7.11885 11.709 7.15785 11.3182L7.47059 7.50003H7.87483C7.98283 7.50003 8.08483 7.45353 8.15608 7.37254C8.22808 7.29229 8.26108 7.18429 8.24683 7.07704Z" fill="#FE2626"/>
<path d="M9.74979 3.00006C10.5782 3.00006 11.2498 2.3285 11.2498 1.50009C11.2498 0.671677 10.5782 0.000116348 9.74979 0.000116348C8.92138 0.000116348 8.24982 0.671677 8.24982 1.50009C8.24982 2.3285 8.92138 3.00006 9.74979 3.00006Z" fill="#FE2626"/>
<path d="M2.24991 0.000116348C1.42268 0.000116348 0.749939 0.672854 0.749939 1.50009C0.749939 2.32733 1.42268 3.00006 2.24991 3.00006C3.0764 3.00006 3.74988 2.32733 3.74988 1.50009C3.74988 0.672854 3.0764 0.000116348 2.24991 0.000116348Z" fill="#FE2626"/>
<path d="M11.9968 7.07704L11.6563 4.42584C11.618 4.04034 11.2978 3.7501 10.9108 3.7501H10.4998C10.4001 3.7501 10.3048 3.78985 10.2343 3.8596L9.74982 4.34409L9.26533 3.8596C9.19483 3.78985 9.09958 3.7501 9.00058 3.7501H8.58959C8.54309 3.7501 8.50109 3.7666 8.45684 3.77485C8.55359 3.94585 8.62934 4.13109 8.65184 4.33884L8.99158 6.98179C9.03358 7.30354 8.93308 7.62753 8.71709 7.87128C8.61509 7.98827 8.48459 8.07077 8.34509 8.13527L8.59409 10.575C8.63234 10.9597 8.95333 11.25 9.34032 11.25H10.1616C10.5486 11.25 10.8695 10.959 10.9085 10.5682L11.2205 7.50003H11.6248C11.7328 7.50003 11.8348 7.45353 11.906 7.37254C11.978 7.29229 12.011 7.18429 11.9968 7.07704Z" fill="#FE2626"/>
<path d="M3.28037 7.86753C3.06737 7.62678 2.96838 7.30354 3.00887 6.98329L3.35012 4.32009C3.36962 4.12059 3.44312 3.9406 3.53687 3.7741C3.49487 3.7666 3.45512 3.7501 3.41087 3.7501H2.99988C2.90013 3.7501 2.80488 3.78985 2.73438 3.8596L2.24989 4.34409L1.7654 3.8596C1.6949 3.78985 1.59965 3.7501 1.50065 3.7501H1.08964C0.702642 3.7501 0.381648 4.04034 0.344148 4.41534L0.00290416 7.07779C-0.0105956 7.18429 0.0224038 7.29229 0.0936526 7.37254C0.164901 7.45353 0.26765 7.50003 0.374898 7.50003H0.779891L1.09339 10.575C1.13088 10.959 1.45263 11.25 1.83962 11.25H2.66086C3.04785 11.25 3.36885 10.959 3.40784 10.5682L3.65684 8.13452C3.51662 8.06927 3.38537 7.98602 3.28037 7.86753Z" fill="#FE2626"/>
</g>
<defs>
<clipPath id="clip0">
<rect width="12" height="12" fill="white"/>
</clipPath>
</defs>
</svg>
