<svg width="15" height="17" viewBox="0 0 15 17" fill="none" xmlns="http://www.w3.org/2000/svg">
<path d="M11.3125 4.625H14.125V13.5312C14.125 14.1758 13.8906 14.7324 13.4219 15.2012C12.9531 15.6699 12.4258 15.875 11.7812 15.875H3.34375C2.69922 15.875 2.14258 15.6699 1.67383 15.2012C1.20508 14.7324 1 14.1758 1 13.5312V4.625H3.8125C3.8125 3.95117 3.95898 3.33594 4.31055 2.75C4.63281 2.16406 5.07227 1.72461 5.6582 1.37305C6.24414 1.05078 6.85938 0.875 7.5625 0.875C8.23633 0.875 8.85156 1.05078 9.4375 1.37305C10.0234 1.72461 10.4629 2.16406 10.8145 2.75C11.1367 3.33594 11.3125 3.95117 11.3125 4.625ZM7.5625 2.28125C6.91797 2.28125 6.36133 2.51562 5.89258 2.98438C5.42383 3.45312 5.21875 3.98047 5.21875 4.625H9.90625C9.90625 3.98047 9.67188 3.45312 9.20312 2.98438C8.73438 2.51562 8.20703 2.28125 7.5625 2.28125ZM12.7188 13.5312V6.03125H11.3125V7.20312C11.3125 7.4082 11.2246 7.58398 11.1074 7.70117C10.9609 7.84766 10.7852 7.90625 10.6094 7.90625C10.4043 7.90625 10.2285 7.84766 10.1113 7.70117C9.96484 7.58398 9.90625 7.4082 9.90625 7.20312V6.03125H5.21875V7.20312C5.21875 7.4082 5.13086 7.58398 5.01367 7.70117C4.86719 7.84766 4.69141 7.90625 4.51562 7.90625C4.31055 7.90625 4.13477 7.84766 4.01758 7.70117C3.87109 7.58398 3.8125 7.4082 3.8125 7.20312V6.03125H2.40625V13.5312C2.40625 13.7949 2.49414 14.0293 2.66992 14.2051C2.8457 14.3809 3.08008 14.4688 3.34375 14.4688H11.7812C12.0156 14.4688 12.25 14.3809 12.4258 14.2051C12.6016 14.0293 12.7188 13.7949 12.7188 13.5312Z" fill="#0D0B22"/>
<path d="M11.3125 4.625H11.1625V4.775H11.3125V4.625ZM14.125 4.625H14.275V4.475H14.125V4.625ZM1 4.625V4.475H0.85V4.625H1ZM3.8125 4.625V4.775H3.9625V4.625H3.8125ZM4.31055 2.75L4.43926 2.82723L4.44198 2.82229L4.31055 2.75ZM5.6582 1.37305L5.58586 1.24152L5.58103 1.24442L5.6582 1.37305ZM9.4375 1.37305L9.51473 1.24433L9.50979 1.24161L9.4375 1.37305ZM10.8145 2.75L10.946 2.67766L10.9431 2.67283L10.8145 2.75ZM5.21875 4.625H5.06875V4.775H5.21875V4.625ZM9.90625 4.625V4.775H10.0562V4.625H9.90625ZM12.7188 6.03125H12.8687V5.88125H12.7188V6.03125ZM11.3125 6.03125V5.88125H11.1625V6.03125H11.3125ZM10.1113 7.70117L10.2285 7.60747L10.218 7.59445L10.205 7.58404L10.1113 7.70117ZM9.90625 6.03125H10.0562V5.88125H9.90625V6.03125ZM5.21875 6.03125V5.88125H5.06875V6.03125H5.21875ZM4.01758 7.70117L4.13471 7.60747L4.1243 7.59445L4.11128 7.58404L4.01758 7.70117ZM3.8125 6.03125H3.9625V5.88125H3.8125V6.03125ZM2.40625 6.03125V5.88125H2.25625V6.03125H2.40625ZM11.3125 4.775H14.125V4.475H11.3125V4.775ZM13.975 4.625V13.5312H14.275V4.625H13.975ZM13.975 13.5312C13.975 14.1347 13.7573 14.6536 13.3158 15.0951L13.5279 15.3072C14.0239 14.8113 14.275 14.2168 14.275 13.5312H13.975ZM13.3158 15.0951C12.8763 15.5346 12.3876 15.725 11.7812 15.725V16.025C12.4639 16.025 13.0299 15.8053 13.5279 15.3072L13.3158 15.0951ZM11.7812 15.725H3.34375V16.025H11.7812V15.725ZM3.34375 15.725C2.7353 15.725 2.218 15.5332 1.77989 15.0951L1.56776 15.3072C2.06715 15.8066 2.66313 16.025 3.34375 16.025V15.725ZM1.77989 15.0951C1.34178 14.657 1.15 14.1397 1.15 13.5312H0.85C0.85 14.2119 1.06837 14.8078 1.56776 15.3072L1.77989 15.0951ZM1.15 13.5312V4.625H0.85V13.5312H1.15ZM1 4.775H3.8125V4.475H1V4.775ZM3.9625 4.625C3.9625 3.97473 4.10335 3.38688 4.43917 2.82717L4.18192 2.67283C3.81462 3.285 3.6625 3.92761 3.6625 4.625H3.9625ZM4.44198 2.82229C4.75042 2.26149 5.17026 1.84074 5.73538 1.50167L5.58103 1.24442C4.97427 1.60848 4.51521 2.06663 4.17911 2.67771L4.44198 2.82229ZM5.73049 1.50448C6.29611 1.19339 6.88666 1.025 7.5625 1.025V0.725C6.83209 0.725 6.19217 0.908173 5.58592 1.24161L5.73049 1.50448ZM7.5625 1.025C8.20847 1.025 8.79904 1.19308 9.36521 1.50448L9.50979 1.24161C8.90408 0.908478 8.26419 0.725 7.5625 0.725V1.025ZM9.36033 1.50167C9.92515 1.84057 10.3469 2.26235 10.6858 2.82717L10.9431 2.67283C10.5788 2.06578 10.1217 1.60865 9.51467 1.24442L9.36033 1.50167ZM10.683 2.82229C10.9944 3.38846 11.1625 3.97903 11.1625 4.625H11.4625C11.4625 3.92331 11.279 3.28342 10.9459 2.67771L10.683 2.82229ZM7.5625 2.13125C6.87693 2.13125 6.2825 2.38233 5.78651 2.87831L5.99864 3.09044C6.44016 2.64892 6.959 2.43125 7.5625 2.43125V2.13125ZM5.78651 2.87831C5.28849 3.37633 5.06875 3.94233 5.06875 4.625H5.36875C5.36875 4.0186 5.55917 3.52992 5.99864 3.09044L5.78651 2.87831ZM5.21875 4.775H9.90625V4.475H5.21875V4.775ZM10.0562 4.625C10.0562 3.9374 9.80366 3.37278 9.30919 2.87831L9.09706 3.09044C9.54009 3.53347 9.75625 4.02353 9.75625 4.625H10.0562ZM9.30919 2.87831C8.81472 2.38384 8.2501 2.13125 7.5625 2.13125V2.43125C8.16397 2.43125 8.65403 2.64741 9.09706 3.09044L9.30919 2.87831ZM12.8687 13.5312V6.03125H12.5688V13.5312H12.8687ZM12.7188 5.88125H11.3125V6.18125H12.7188V5.88125ZM11.1625 6.03125V7.20312H11.4625V6.03125H11.1625ZM11.1625 7.20312C11.1625 7.36473 11.0931 7.50332 11.0014 7.59511L11.2135 7.80724C11.3561 7.66464 11.4625 7.45168 11.4625 7.20312H11.1625ZM11.0014 7.59511C10.8859 7.71051 10.7497 7.75625 10.6094 7.75625V8.05625C10.8206 8.05625 11.0359 7.9848 11.2135 7.80724L11.0014 7.59511ZM10.6094 7.75625C10.4319 7.75625 10.3076 7.70639 10.2285 7.60747L9.9942 7.79488C10.1494 7.98892 10.3767 8.05625 10.6094 8.05625V7.75625ZM10.205 7.58404C10.1061 7.5049 10.0562 7.38057 10.0562 7.20312H9.75625C9.75625 7.43584 9.82358 7.66307 10.0176 7.8183L10.205 7.58404ZM10.0562 7.20312V6.03125H9.75625V7.20312H10.0562ZM9.90625 5.88125H5.21875V6.18125H9.90625V5.88125ZM5.06875 6.03125V7.20312H5.36875V6.03125H5.06875ZM5.06875 7.20312C5.06875 7.36473 4.99939 7.50332 4.90761 7.59511L5.11974 7.80724C5.26233 7.66464 5.36875 7.45168 5.36875 7.20312H5.06875ZM4.90761 7.59511C4.7922 7.71051 4.65599 7.75625 4.51562 7.75625V8.05625C4.72682 8.05625 4.94218 7.9848 5.11974 7.80724L4.90761 7.59511ZM4.51562 7.75625C4.33818 7.75625 4.21385 7.70639 4.13471 7.60747L3.90045 7.79488C4.05568 7.98892 4.28291 8.05625 4.51562 8.05625V7.75625ZM4.11128 7.58404C4.01236 7.5049 3.9625 7.38057 3.9625 7.20312H3.6625C3.6625 7.43584 3.72983 7.66307 3.92387 7.8183L4.11128 7.58404ZM3.9625 7.20312V6.03125H3.6625V7.20312H3.9625ZM3.8125 5.88125H2.40625V6.18125H3.8125V5.88125ZM2.25625 6.03125V13.5312H2.55625V6.03125H2.25625ZM2.25625 13.5312C2.25625 13.8295 2.35647 14.1038 2.56386 14.3111L2.77599 14.099C2.63181 13.9548 2.55625 13.7603 2.55625 13.5312H2.25625ZM2.56386 14.3111C2.77124 14.5185 3.0455 14.6187 3.34375 14.6187V14.3188C3.11466 14.3188 2.92016 14.2432 2.77599 14.099L2.56386 14.3111ZM3.34375 14.6187H11.7812V14.3188H3.34375V14.6187ZM11.7812 14.6187C12.0527 14.6187 12.3261 14.5169 12.5318 14.3111L12.3197 14.099C12.1739 14.2448 11.9785 14.3188 11.7812 14.3188V14.6187ZM12.5318 14.3111C12.7308 14.1122 12.8687 13.8413 12.8687 13.5312H12.5688C12.5688 13.7486 12.4724 13.9464 12.3197 14.099L12.5318 14.3111Z" fill="#0D0B22"/>
</svg>
