<svg width="13" height="14" viewBox="0 0 13 14" fill="none" xmlns="http://www.w3.org/2000/svg">
<path fill-rule="evenodd" clip-rule="evenodd" d="M8.16934 7.00311L12.7576 2.41688C13.0808 2.09166 13.0808 1.56551 12.7576 1.24236C12.4345 0.919213 11.9083 0.919213 11.5914 1.24236L7.00311 5.83066L2.41688 1.24236C2.09166 0.919213 1.56551 0.919213 1.24236 1.24236C0.919213 1.56551 0.919213 2.09166 1.24236 2.41688L5.83066 7.00311L1.24236 11.5914C0.919213 11.9083 0.919213 12.4345 1.24236 12.7576C1.56551 13.0808 2.09166 13.0808 2.41688 12.7576L7.00311 8.16934L11.5914 12.7576C11.9083 13.0808 12.4345 13.0808 12.7576 12.7576C13.0808 12.4345 13.0808 11.9083 12.7576 11.5914L8.16934 7.00311Z" fill="#0D0B22" stroke="#0D0B22" stroke-width="0.3"/>
</svg>
