<svg width="13" height="12" viewBox="0 0 13 12" fill="none" xmlns="http://www.w3.org/2000/svg">
<path d="M10.9322 1.68135C10.3485 1.19273 9.61391 0.953028 8.87232 1.00925C8.13074 1.06547 7.4357 1.41355 6.9235 1.98525L6.50048 2.43844L6.07913 1.98525C5.5668 1.41282 4.87126 1.06427 4.1291 1.00804C3.38693 0.951813 2.65176 1.19197 2.06796 1.68135C1.75229 1.96144 1.49474 2.30787 1.31154 2.69879C1.12833 3.08972 1.02345 3.51667 1.0035 3.95273C0.983554 4.38879 1.04897 4.82451 1.19563 5.23242C1.34228 5.64033 1.567 6.01159 1.85562 6.32279L6.01251 10.784C6.07611 10.8524 6.15189 10.9067 6.23544 10.9438C6.319 10.9809 6.40866 11 6.49923 11C6.5898 11 6.67946 10.9809 6.76302 10.9438C6.84657 10.9067 6.92235 10.8524 6.98595 10.784L11.1428 6.32279C11.4318 6.01184 11.6568 5.64071 11.8038 5.23284C11.9507 4.82497 12.0164 4.38922 11.9966 3.95308C11.9768 3.51694 11.872 3.08989 11.6888 2.69889C11.5055 2.30788 11.2479 1.96141 10.9322 1.68135V1.68135Z" stroke="#223C52" stroke-width="1.5"/>
</svg>
