<svg width="15" height="15" viewBox="0 0 15 15" fill="none" xmlns="http://www.w3.org/2000/svg">
<path d="M10.3125 0H4.6875C2.09906 0 0 2.09906 0 4.6875V10.3125C0 12.9009 2.09906 15 4.6875 15H10.3125C12.9009 15 15 12.9009 15 10.3125V4.6875C15 2.09906 12.9009 0 10.3125 0ZM13.5938 10.3125C13.5938 12.1219 12.1219 13.5938 10.3125 13.5938H4.6875C2.87812 13.5938 1.40625 12.1219 1.40625 10.3125V4.6875C1.40625 2.87812 2.87812 1.40625 4.6875 1.40625H10.3125C12.1219 1.40625 13.5938 2.87812 13.5938 4.6875V10.3125Z" fill="white"/>
<path d="M7.5 3.90002C5.291 3.90002 3.5 5.69102 3.5 7.90002C3.5 10.109 5.291 11.9 7.5 11.9C9.709 11.9 11.5 10.109 11.5 7.90002C11.5 5.69102 9.709 3.90002 7.5 3.90002ZM7.5 10.3C6.17712 10.3 5.1 9.2229 5.1 7.90002C5.1 6.57618 6.17712 5.50002 7.5 5.50002C8.82288 5.50002 9.9 6.57618 9.9 7.90002C9.9 9.2229 8.82288 10.3 7.5 10.3Z" fill="white"/>
<path d="M10.5 4.5C11.0523 4.5 11.5 4.05228 11.5 3.5C11.5 2.94772 11.0523 2.5 10.5 2.5C9.94772 2.5 9.5 2.94772 9.5 3.5C9.5 4.05228 9.94772 4.5 10.5 4.5Z" fill="white"/>
</svg>
