<?xml version="1.0" encoding="UTF-8" standalone="no"?>
<svg
   xmlns:dc="http://purl.org/dc/elements/1.1/"
   xmlns:cc="http://creativecommons.org/ns#"
   xmlns:rdf="http://www.w3.org/1999/02/22-rdf-syntax-ns#"
   xmlns:svg="http://www.w3.org/2000/svg"
   xmlns="http://www.w3.org/2000/svg"
   xmlns:sodipodi="http://sodipodi.sourceforge.net/DTD/sodipodi-0.dtd"
   xmlns:inkscape="http://www.inkscape.org/namespaces/inkscape"
   width="13"
   height="18"
   viewBox="0 0 13 18"
   fill="none"
   version="1.1"
   id="svg6"
   sodipodi:docname="location.svg"
   inkscape:version="0.92.5 (2060ec1f9f, 2020-04-08)">
  <metadata
     id="metadata12">
    <rdf:RDF>
      <cc:Work
         rdf:about="">
        <dc:format>image/svg+xml</dc:format>
        <dc:type
           rdf:resource="http://purl.org/dc/dcmitype/StillImage" />
        <dc:title></dc:title>
      </cc:Work>
    </rdf:RDF>
  </metadata>
  <defs
     id="defs10" />
  <sodipodi:namedview
     pagecolor="#ffffff"
     bordercolor="#666666"
     borderopacity="1"
     objecttolerance="10"
     gridtolerance="10"
     guidetolerance="10"
     inkscape:pageopacity="0"
     inkscape:pageshadow="2"
     inkscape:window-width="1920"
     inkscape:window-height="1017"
     id="namedview8"
     showgrid="false"
     inkscape:zoom="13.111111"
     inkscape:cx="-2.9957627"
     inkscape:cy="9"
     inkscape:window-x="-8"
     inkscape:window-y="-8"
     inkscape:window-maximized="1"
     inkscape:current-layer="svg6" />
  <g
     id="g828">
    <path
       id="path2"
       d="m 1.60868,9.49135 1.3e-4,2.1e-4 4.36592,7.00814 c 0,0 0,0 10e-6,0 0.12946,0.2078 0.35718,0.3336 0.60162,0.3336 h 10e-6 v 0 h 1e-5 10e-6 v 0 h 10e-6 1e-5 10e-6 v 0 h 1e-5 10e-6 v 0 h 1e-5 10e-6 10e-6 v 0 h 1e-5 10e-6 v 0 h 1e-5 10e-6 1e-5 v 0 h 10e-6 10e-6 v 0 h 1e-5 10e-6 1e-5 v 0 h 10e-6 1e-5 v 0 h 10e-6 10e-6 1e-5 v 0 h 10e-6 1e-5 v 0 h 10e-6 1e-5 10e-6 10e-6 1e-5 v 0 h 10e-6 1e-5 10e-6 v 0 h 1e-5 10e-6 v 0 h 10e-6 1e-5 10e-6 v 0 h 1e-5 10e-6 v 0 h 1e-5 2e-5 v 0 h 1e-5 10e-6 v 0 h 1e-5 10e-6 1e-5 v 0 h 10e-6 10e-6 v 0 h 1e-5 10e-6 1e-5 10e-6 10e-6 v 0 h 1e-5 10e-6 v 0 h 1e-5 10e-6 1e-5 v 0 h 2e-5 v 0 h 1e-5 10e-6 1e-5 v 0 h 10e-6 1e-5 v 0 h 2e-5 1e-5 v 0 h 10e-6 1e-5 v 0 h 10e-6 1e-5 10e-6 10e-6 1e-5 v 0 h 10e-6 1e-5 10e-6 v 0 h 1e-5 10e-6 10e-6 1e-5 v 0 h 10e-6 1e-5 10e-6 v 0 h 2e-5 v 0 h 10e-6 1e-5 10e-6 v 0 h 1e-5 10e-6 1e-5 10e-6 10e-6 v 0 h 1e-5 10e-6 1e-5 10e-6 v 0 h 1e-5 10e-6 10e-6 1e-5 10e-6 v 0 h 1e-5 10e-6 1e-5 10e-6 10e-6 v 0 h 1e-5 10e-6 1e-5 10e-6 10e-6 v 0 h 1e-5 10e-6 1e-5 10e-6 1e-5 v 0 h 10e-6 10e-6 v 0 h 2e-5 1e-5 v 0 h 10e-6 1e-5 v 0 h 2e-5 1e-5 v 0 h 10e-6 1e-5 10e-6 1e-5 v 0 h 10e-6 10e-6 1e-5 10e-6 1e-5 v 0 h 10e-6 1e-5 10e-6 10e-6 1e-5 v 0 h 10e-6 2e-5 v 0 h 1e-5 10e-6 v 0 h 2e-5 v 0 h 10e-6 1e-5 10e-6 1e-5 10e-6 v 0 h 10e-6 1e-5 10e-6 1e-5 10e-6 v 0 h 1e-5 10e-6 10e-6 1e-5 10e-6 v 0 h 1e-5 10e-6 1e-5 10e-6 10e-6 v 0 h 2e-5 v 0 h 1e-5 10e-6 10e-6 1e-5 10e-6 v 0 h 1e-5 10e-6 1e-5 10e-6 10e-6 v 0 h 2e-5 v 0 h 1e-5 10e-6 1e-5 10e-6 10e-6 v 0 h 1e-5 10e-6 1e-5 10e-6 1e-5 v 0 h 10e-6 10e-6 1e-5 10e-6 1e-5 v 0 h 10e-6 1e-5 10e-6 10e-6 1e-5 v 0 h 2e-5 v 0 h 10e-6 1e-5 10e-6 10e-6 1e-5 v 0 h 10e-6 1e-5 10e-6 1e-5 10e-6 v 0 h 10e-6 1e-5 10e-6 1e-5 10e-6 v 0 h 1e-5 10e-6 10e-6 1e-5 v 0 h 10e-6 2e-5 v 0 h 1e-5 10e-6 v 0 h 10e-6 2e-5 v 0 h 1e-5 10e-6 v 0 h 10e-6 1e-5 10e-6 1e-5 10e-6 v 0 h 1e-5 10e-6 10e-6 1e-5 10e-6 v 0 h 1e-5 10e-6 1e-5 10e-6 10e-6 v 0 h 1e-5 10e-6 1e-5 10e-6 1e-5 v 0 h 10e-6 10e-6 1e-5 10e-6 v 0 h 1e-5 10e-6 1e-5 10e-6 10e-6 v 0 h 1e-5 10e-6 1e-5 v 0 h 2e-5 v 0 h 10e-6 10e-6 1e-5 v 0 h 10e-6 1e-5 10e-6 1e-5 v 0 h 10e-6 10e-6 1e-5 v 0 h 10e-6 1e-5 10e-6 1e-5 10e-6 v 0 h 10e-6 1e-5 v 0 h 10e-6 2e-5 v 0 h 1e-5 10e-6 v 0 h 10e-6 1e-5 10e-6 v 0 h 2e-5 v 0 h 10e-6 1e-5 10e-6 v 0 h 1e-5 10e-6 v 0 h 1e-5 10e-6 10e-6 1e-5 10e-6 v 0 h 1e-5 10e-6 v 0 h 1e-5 10e-6 10e-6 v 0 h 1e-5 10e-6 1e-5 10e-6 1e-5 v 0 h 10e-6 10e-6 v 0 h 1e-5 10e-6 1e-5 v 0 h 10e-6 1e-5 v 0 h 10e-6 10e-6 1e-5 v 0 h 10e-6 1e-5 10e-6 1e-5 10e-6 v 0 h 10e-6 1e-5 v 0 h 10e-6 1e-5 10e-6 v 0 h 1e-5 10e-6 v 0 h 10e-6 1e-5 10e-6 v 0 h 1e-5 10e-6 v 0 h 1e-5 10e-6 10e-6 v 0 h 1e-5 10e-6 v 0 h 1e-5 10e-6 1e-5 v 0 h 10e-6 10e-6 v 0 h 1e-5 10e-6 1e-5 v 0 h 10e-6 10e-6 v 0 h 0.00196 c 0.24654,-0.0019 0.47478,-0.1316 0.6019,-0.3431 l 4.25465,-7.07603 10e-5,-2e-4 C 11.9695,8.52906 12.25,7.514 12.25,6.47852 12.25,3.31867 9.66985,0.75 6.5,0.75 c -3.16985,0 -5.75,2.56867 -5.75,5.72852 0,1.06713 0.2968,2.10893 0.85868,3.01283 z M 10.2232,8.68795 6.56564,14.7709 2.81242,8.7463 C 2.38941,8.06581 2.16056,7.28157 2.16056,6.47852 2.16056,4.10013 4.1099,2.157 6.5,2.157 c 2.38989,0 4.3364,1.94291 4.3364,4.32152 0,0.77972 -0.2139,1.54386 -0.6131,2.2093 -10e-5,4e-5 -10e-5,8e-5 -10e-5,1.3e-4 z"
       inkscape:connector-curvature="0"
       style="fill:#0d0b22;stroke:#0d0b22;stroke-width:0.5" />
    <path
       id="path4"
       d="M 6.651,5 C 5.74064,5 5,5.74064 5,6.651 5,7.55555 5.72859,8.302 6.651,8.302 7.58479,8.302 8.302,7.5456 8.302,6.651 8.302,5.74064 7.56136,5 6.651,5 Z m 0,2.75534 c -0.61008,0 -0.47912,-0.49591 -0.47912,-1.10434 0,-0.60691 -0.12779,-1.10434 0.47912,-1.10434 0.60691,0 -0.32288,0.49743 -0.32288,1.10434 0,0.59955 0.94263,1.10434 0.32288,1.10434 z"
       inkscape:connector-curvature="0"
       style="fill:#0d0b22;stroke:#0d0b22;stroke-width:0.60000002" />
  </g>
</svg>
