<svg width="13" height="16" viewBox="0 0 13 16" fill="none" xmlns="http://www.w3.org/2000/svg">
<path d="M6.52 10.5876C3.478 10.5876 1 12.4838 1 14.8152C1.014 14.8682 1.045 14.915 1.089 14.9484C1.132 14.9818 1.185 14.9999 1.24 14.9999C1.295 14.9999 1.348 14.9818 1.392 14.9484C1.435 14.915 1.466 14.8682 1.48 14.8152C1.48 12.6873 3.742 10.9558 6.52 10.9558C9.3 10.9558 11.57 12.6873 11.57 14.8152C11.58 14.8682 11.61 14.915 11.65 14.9484C11.7 14.9818 11.75 14.9999 11.81 14.9999C11.86 14.9999 11.91 14.9818 11.96 14.9484C12 14.915 12.03 14.8682 12.05 14.8152C12.04 12.4838 9.57 10.5876 6.52 10.5876Z" fill="#0D0B22" stroke="#0D0B22" stroke-width="1.5"/>
<path fill-rule="evenodd" clip-rule="evenodd" d="M4.61797 1.5872C5.18997 1.2044 5.85997 1 6.54997 1C7.47997 1.001 8.35997 1.3685 9.01997 2.0217C9.66997 2.675 10.04 3.5607 10.04 4.4845C10.04 5.1737 9.82997 5.8474 9.44997 6.4204C9.06997 6.9934 8.51997 7.44 7.88997 7.7037C7.24997 7.9675 6.54997 8.0365 5.86997 7.902C5.19997 7.7676 4.57697 7.4357 4.08997 6.9484C3.60297 6.4611 3.27097 5.8402 3.13597 5.1643C3.00197 4.4884 3.07097 3.7877 3.33497 3.151C3.59797 2.5143 4.04497 1.9701 4.61797 1.5872ZM4.96997 6.8554C5.43997 7.1687 5.98997 7.336 6.54997 7.336C7.30997 7.3352 8.02997 7.0345 8.56997 6.4999C9.09997 5.9653 9.39997 5.2405 9.40997 4.4845C9.40997 3.9205 9.23997 3.3692 8.91997 2.9003C8.60997 2.4314 8.16997 2.0659 7.64997 1.8501C7.11997 1.6342 6.54997 1.5778 5.99997 1.6878C5.43997 1.7978 4.93597 2.0694 4.53797 2.4682C4.13897 2.867 3.86697 3.3751 3.75697 3.9282C3.64697 4.4813 3.70397 5.0547 3.91997 5.5757C4.13497 6.0967 4.50097 6.5421 4.96997 6.8554Z" fill="#0D0B22"/>
<path d="M6.54997 1L6.55077 0.25H6.54997V1ZM4.61797 1.5872L5.03467 2.21079L5.0351 2.2105L4.61797 1.5872ZM9.01997 2.0217L9.55165 1.4927L9.54754 1.48863L9.01997 2.0217ZM7.88997 7.7037L8.17578 8.39712L8.17955 8.39554L7.88997 7.7037ZM5.86997 7.902L5.72246 8.63735L5.72444 8.63775L5.86997 7.902ZM3.13597 5.1643L2.40028 5.31015L2.40049 5.3112L3.13597 5.1643ZM3.33497 3.151L4.02777 3.43826L4.02816 3.43733L3.33497 3.151ZM6.54997 7.336V8.086L6.55076 8.086L6.54997 7.336ZM4.96997 6.8554L4.55336 7.47905L4.55397 7.47946L4.96997 6.8554ZM8.56997 6.4999L9.09765 7.03291L9.10258 7.02793L8.56997 6.4999ZM9.40997 4.4845L10.16 4.49442V4.4845H9.40997ZM8.91997 2.9003L8.29426 3.31397L8.30048 3.32307L8.91997 2.9003ZM7.64997 1.8501L7.93745 1.15737L7.93291 1.15552L7.64997 1.8501ZM5.99997 1.6878L6.14453 2.42374L6.14705 2.42324L5.99997 1.6878ZM4.53797 2.4682L5.06816 2.99866L5.06883 2.998L4.53797 2.4682ZM3.75697 3.9282L3.02137 3.78191H3.02137L3.75697 3.9282ZM3.91997 5.5757L4.61326 5.2896L4.61278 5.28847L3.91997 5.5757ZM6.54997 0.25C5.71098 0.25 4.89588 0.498755 4.20084 0.963901L5.0351 2.2105C5.48405 1.91005 6.00895 1.75 6.54997 1.75V0.25ZM9.54754 1.48863C8.74921 0.698524 7.68071 0.251215 6.55077 0.25L6.54916 1.75C7.27923 1.75078 7.97072 2.03848 8.49239 2.55477L9.54754 1.48863ZM10.79 4.4845C10.79 3.36025 10.3399 2.28499 9.55164 1.49271L8.4883 2.55069C9.00002 3.06501 9.28997 3.76115 9.28997 4.4845H10.79ZM10.075 6.83491C10.5338 6.14313 10.79 5.32599 10.79 4.4845H9.28997C9.28997 5.02141 9.12615 5.55167 8.82492 6.00589L10.075 6.83491ZM8.17955 8.39554C8.94237 8.07625 9.61072 7.53501 10.075 6.83491L8.82492 6.00589C8.52921 6.45179 8.09757 6.80375 7.60038 7.01186L8.17955 8.39554ZM5.72444 8.63775C6.54937 8.80091 7.39941 8.71712 8.17578 8.39711L7.60415 7.01029C7.10053 7.21788 6.55057 7.27209 6.01549 7.16625L5.72444 8.63775ZM3.55947 7.47857C4.15155 8.07101 4.90798 8.47397 5.72246 8.63735L6.01748 7.16665C5.49195 7.06123 5.00238 6.80039 4.62046 6.41823L3.55947 7.47857ZM2.40049 5.3112C2.56448 6.13221 2.96776 6.88649 3.55947 7.47857L4.62046 6.41823C4.23818 6.03572 3.97746 5.54819 3.87144 5.0174L2.40049 5.3112ZM2.64216 2.86374C2.32127 3.63763 2.2375 4.48907 2.40028 5.31015L3.87165 5.01845C3.76643 4.48773 3.82066 3.93777 4.02777 3.43826L2.64216 2.86374ZM4.20126 0.963615C3.50518 1.42877 2.9617 2.09015 2.64178 2.86467L4.02816 3.43733C4.23423 2.93845 4.58476 2.51143 5.03467 2.21079L4.20126 0.963615ZM6.54997 6.586C6.13939 6.586 5.73391 6.46328 5.38596 6.23134L4.55397 7.47946C5.14603 7.87412 5.84055 8.086 6.54997 8.086V6.586ZM8.04231 5.96691C7.64057 6.36463 7.10908 6.58541 6.54918 6.586L6.55076 8.086C7.51085 8.08499 8.41937 7.70437 9.09762 7.03289L8.04231 5.96691ZM8.66003 4.47458C8.65256 5.03939 8.42832 5.57751 8.03735 5.97187L9.10258 7.02793C9.77162 6.35309 10.1474 5.44161 10.1599 4.49442L8.66003 4.47458ZM8.30048 3.32307C8.53564 3.66766 8.65997 4.07168 8.65997 4.4845H10.16C10.16 3.76932 9.94429 3.07074 9.53945 2.47753L8.30048 3.32307ZM7.36249 2.54282C7.74303 2.70074 8.06586 2.96834 8.29433 3.31392L9.5456 2.48668C9.15407 1.89446 8.59691 1.43106 7.93744 1.15738L7.36249 2.54282ZM6.14705 2.42324C6.54926 2.34279 6.96988 2.3829 7.36702 2.54468L7.93291 1.15552C7.27006 0.8855 6.55067 0.812807 5.85288 0.952364L6.14705 2.42324ZM5.06883 2.998C5.36228 2.70395 5.73211 2.50475 6.14453 2.42374L5.85541 0.951863C5.14783 1.09085 4.50965 1.43485 4.0071 1.9384L5.06883 2.998ZM4.49256 4.07449C4.57355 3.66726 4.77391 3.29277 5.06816 2.99866L4.00777 1.93774C3.50402 2.44123 3.16038 3.08294 3.02137 3.78191L4.49256 4.07449ZM4.61278 5.28847C4.45347 4.90419 4.41159 4.48164 4.49256 4.07449L3.02137 3.78191C2.88235 4.48096 2.95447 5.20521 3.22715 5.86293L4.61278 5.28847ZM5.38657 6.23175C5.04062 6.00065 4.77126 5.67248 4.61325 5.2896L3.22668 5.8618C3.49868 6.52092 3.96131 7.08355 4.55336 7.47905L5.38657 6.23175Z" fill="#0D0B22"/>
</svg>
