<svg width="16" height="13" viewBox="0 0 16 13" fill="none" xmlns="http://www.w3.org/2000/svg">
<path d="M16 1.54124C15.4 1.80928 14.8 2.01031 14.1333 2.07732C14.8 1.67526 15.3333 1.00515 15.6 0.268041C14.9333 0.670103 14.2667 0.938144 13.5333 1.07216C12.9333 0.402062 12.0667 0 11.1333 0C9.33333 0 7.86667 1.47423 7.86667 3.28351C7.86667 3.55155 7.86667 3.81959 7.93333 4.02062C5.13333 3.8866 2.73333 2.54639 1.13333 0.536082C0.8 1.07216 0.666667 1.60825 0.666667 2.21134C0.666667 3.35052 1.26667 4.35567 2.13333 4.95876C1.6 4.95876 1.06667 4.82474 0.666667 4.5567C0.666667 4.5567 0.666667 4.5567 0.666667 4.62371C0.666667 6.23196 1.8 7.57217 3.26667 7.84021C3 7.90722 2.73333 7.97423 2.4 7.97423C2.2 7.97423 2 7.97423 1.8 7.90722C2.2 9.24742 3.4 10.1856 4.86667 10.1856C3.73333 11.0567 2.33333 11.5928 0.8 11.5928C0.533333 11.5928 0.266667 11.5928 0 11.5258C1.46667 12.4639 3.2 13 5 13C11.0667 13 14.3333 7.97423 14.3333 3.61856C14.3333 3.48454 14.3333 3.35052 14.3333 3.21649C15 2.74742 15.5333 2.14433 16 1.54124Z" fill="white"/>
</svg>
