<svg width="12" height="12" viewBox="0 0 12 12" fill="none" xmlns="http://www.w3.org/2000/svg">
<path d="M0.211456 4.93787L11.5083 0.029127C11.6408 -0.028412 11.7949 0.000884861 11.897 0.102978C11.9991 0.205095 12.0284 0.359267 11.9709 0.491689L7.06211 11.7885C7.0061 11.9175 6.87906 12 6.73978 12C6.73314 12 6.72646 11.9998 6.71983 11.9994C6.57281 11.9911 6.44655 11.8921 6.40349 11.7513L5.35087 8.30954C5.10737 7.51337 4.48665 6.89265 3.69046 6.64913L0.248746 5.59651C0.107957 5.55343 0.00888538 5.42717 0.000565529 5.28017C-0.00775433 5.13317 0.0764093 4.99656 0.211456 4.93787Z" fill="#FE2626"/>
</svg>
