<svg width="14" height="14" viewBox="0 0 14 14" fill="none" xmlns="http://www.w3.org/2000/svg">
<path fill-rule="evenodd" clip-rule="evenodd" d="M12.8171 11.9294L9.85956 8.96006C10.6202 8.08667 11.037 6.98815 11.037 5.8446C11.037 3.17334 8.7858 1 6.0178 1C3.25116 1 1 3.17334 1 5.8446C1 8.51665 3.25116 10.69 6.0178 10.69C7.05665 10.69 8.0475 10.3877 8.89326 9.81266L11.8743 12.8057C11.9989 12.9313 12.1661 13 12.3464 13C12.5157 13 12.6764 12.9373 12.7991 12.8233C13.0601 12.5816 13.0675 12.1814 12.8171 11.9294ZM6.0178 2.26414C8.06332 2.26414 9.72756 3.87085 9.72756 5.8446C9.72756 7.81941 8.06332 9.42586 6.0178 9.42586C3.97337 9.42586 2.30941 7.81941 2.30941 5.8446C2.30941 3.87085 3.97337 2.26414 6.0178 2.26414Z" fill="#0D0B22"/>
<path d="M12.8171 11.9294L12.9945 11.7532L12.9942 11.753L12.8171 11.9294ZM9.85956 8.96006L9.67104 8.79587L9.51809 8.97149L9.68244 9.13649L9.85956 8.96006ZM8.89326 9.81266L9.07039 9.63624L8.92411 9.48936L8.75269 9.60592L8.89326 9.81266ZM11.8743 12.8057L12.0517 12.6296L12.0514 12.6293L11.8743 12.8057ZM12.7991 12.8233L12.6292 12.6399L12.629 12.6402L12.7991 12.8233ZM12.9942 11.753L10.0367 8.78364L9.68244 9.13649L12.64 12.1058L12.9942 11.753ZM10.0481 9.12426C10.8476 8.20626 11.287 7.04971 11.287 5.8446H10.787C10.787 6.92659 10.3929 7.96708 9.67104 8.79587L10.0481 9.12426ZM11.287 5.8446C11.287 3.02702 8.91547 0.75 6.0178 0.75V1.25C8.65613 1.25 10.787 3.31967 10.787 5.8446H11.287ZM6.0178 0.75C3.12145 0.75 0.75 3.02707 0.75 5.8446H1.25C1.25 3.31962 3.38088 1.25 6.0178 1.25V0.75ZM0.75 5.8446C0.75 8.66291 3.12142 10.94 6.0178 10.94V10.44C3.38091 10.44 1.25 8.3704 1.25 5.8446H0.75ZM6.0178 10.94C7.10593 10.94 8.14591 10.6231 9.03383 10.0194L8.75269 9.60592C7.94909 10.1523 7.00737 10.44 6.0178 10.44V10.94ZM8.71613 9.98908L11.6971 12.9821L12.0514 12.6293L9.07039 9.63624L8.71613 9.98908ZM11.6968 12.9818C11.8695 13.1558 12.101 13.25 12.3464 13.25V12.75C12.2312 12.75 12.1283 12.7068 12.0517 12.6296L11.6968 12.9818ZM12.3464 13.25C12.5781 13.25 12.7997 13.164 12.9693 13.0065L12.629 12.6402C12.5531 12.7107 12.4534 12.75 12.3464 12.75V13.25ZM12.969 13.0067C13.3342 12.6685 13.3442 12.1052 12.9945 11.7532L12.6398 12.1056C12.7908 12.2576 12.786 12.4947 12.6292 12.6399L12.969 13.0067ZM6.0178 2.51414C7.93366 2.51414 9.47756 4.01718 9.47756 5.8446H9.97756C9.97756 3.72451 8.19298 2.01414 6.0178 2.01414V2.51414ZM9.47756 5.8446C9.47756 7.6731 7.93364 9.17586 6.0178 9.17586V9.67586C8.19301 9.67586 9.97756 7.96573 9.97756 5.8446H9.47756ZM6.0178 9.17586C4.10313 9.17586 2.55941 7.67317 2.55941 5.8446H2.05941C2.05941 7.96566 3.84361 9.67586 6.0178 9.67586V9.17586ZM2.55941 5.8446C2.55941 4.01711 4.1031 2.51414 6.0178 2.51414V2.01414C3.84364 2.01414 2.05941 3.72458 2.05941 5.8446H2.55941Z" fill="#0D0B22"/>
</svg>
