<svg width="15" height="10" viewBox="0 0 15 10" fill="none" xmlns="http://www.w3.org/2000/svg">
<path d="M7.33336 3C6.23002 3 5.33336 3.89666 5.33336 5.00002C5.33336 6.10337 6.23002 7.00003 7.33336 7.00003C8.4367 7.00003 9.33336 6.10337 9.33336 5.00002C9.33336 3.89666 8.43667 3 7.33336 3Z" fill="#223C52"/>
<path d="M7.33334 0C4 0 1.15334 2.07331 0 4.99998C1.15334 7.92663 4 9.99997 7.33334 9.99997C10.67 9.99997 13.5133 7.92663 14.6667 4.99998C13.5133 2.07331 10.67 0 7.33334 0ZM7.33334 8.33329C5.49334 8.33329 4 6.83995 4 4.99995C4 3.15996 5.49334 1.66665 7.33334 1.66665C9.17334 1.66665 10.6667 3.15999 10.6667 4.99998C10.6667 6.83998 9.17334 8.33329 7.33334 8.33329Z" fill="#223C52"/>
</svg>
